<?xml version="1.0" encoding="UTF-8" standalone="no"?>
<!-- Created with Inkscape (http://www.inkscape.org/) -->

<svg
   xmlns:dc="http://purl.org/dc/elements/1.1/"
   xmlns:cc="http://creativecommons.org/ns#"
   xmlns:rdf="http://www.w3.org/1999/02/22-rdf-syntax-ns#"
   xmlns:svg="http://www.w3.org/2000/svg"
   xmlns="http://www.w3.org/2000/svg"
   xmlns:sodipodi="http://sodipodi.sourceforge.net/DTD/sodipodi-0.dtd"
   xmlns:inkscape="http://www.inkscape.org/namespaces/inkscape"
   width="744.09448819"
   height="1052.3622047"
   id="svg2"
   version="1.1"
   inkscape:version="0.48.4 r9939"
   sodipodi:docname="New document 1">
  <defs
     id="defs4" />
  <sodipodi:namedview
     id="base"
     pagecolor="#ffffff"
     bordercolor="#666666"
     borderopacity="1.0"
     inkscape:pageopacity="0.0"
     inkscape:pageshadow="2"
     inkscape:zoom="0.45787118"
     inkscape:cx="393.27814"
     inkscape:cy="745.53357"
     inkscape:document-units="px"
     inkscape:current-layer="layer1"
     showgrid="false"
     inkscape:window-width="1920"
     inkscape:window-height="1023"
     inkscape:window-x="0"
     inkscape:window-y="0"
     inkscape:window-maximized="1" />
  <metadata
     id="metadata7">
    <rdf:RDF>
      <cc:Work
         rdf:about="">
        <dc:format>image/svg+xml</dc:format>
        <dc:type
           rdf:resource="http://purl.org/dc/dcmitype/StillImage" />
        <dc:title></dc:title>
      </cc:Work>
    </rdf:RDF>
  </metadata>
  <g
     inkscape:label="Layer 1"
     inkscape:groupmode="layer"
     id="layer1">
    <path
       style="fill:#000000;fill-opacity:1;stroke:none;stroke-opacity:1"
       d="m 283.02254,982.45271 c -6.67619,-4.30628 -7.49755,-14.09689 -2.52283,-18.7972 34.23805,-22.29551 54.43803,-74.11889 61.7117,-114.63896 5.05065,-42.23506 -2.9467,-76.48511 -34.86541,-87.81022 -19.05981,-6.05733 -38.22072,11.70833 -39.95764,21.23766 -0.42288,9.12314 -6.48454,12.28247 -11.69614,8.32628 -6.31225,-7.0765 -2.34355,-15.70539 1.52207,-22.45756 10.0151,-21.2559 33.38861,-44.67134 58.46332,-47.00021 11.11265,-0.75744 15.48278,0.47468 21.03667,4.45846 20.08334,12.23414 14.19149,28.22329 31.84984,40.5302 4.17082,1.46812 8.47681,-0.0445 9.77251,-4.44696 4.29904,-13.4298 13.03096,-24.5193 20.66286,-35.18784 5.83897,-10.5309 13.72914,-9.50382 17.71479,1.56827 18.73943,26.54032 42.92247,17.45276 56.41549,-4.79566 5.72889,-7.4219 14.17054,-7.96077 19.76223,-0.58878 2.31158,3.52791 1.88858,7.93889 -1.06815,11.13864 -10.5346,11.00094 -19.47158,25.30521 -29.09188,36.24763 -14.42299,15.95886 -22.8631,37.64988 -32.937,53.48284 -4.22613,5.58787 -4.79744,7.31322 -3.61148,10.90669 1.2513,3.7915 7.00649,7.36133 16.03079,9.94359 7.45486,2.13318 14.36096,6.69224 17.87508,11.67722 7.55887,8.10904 11.21949,6.39023 15.5373,-2.14906 5.51012,-9.94334 13.55773,-19.51636 13.98173,-30.10736 0.76337,-5.78957 -1.89851,-9.41848 -5.36691,-11.77108 -10.12016,-6.99271 -12.34885,-26.09189 -3.00798,-31.89065 4.46772,-2.51099 7.13071,-2.62779 13.05264,-0.57249 6.04228,2.09706 10.31213,6.24457 13.41703,13.03256 4.09107,8.94401 4.27591,13.21249 3.76128,21.70784 -0.76222,16.65076 -7.6333,31.73328 -17.47639,43.45158 -8.19069,8.99205 -16.22677,19.54797 -17.33439,22.76977 -1.02195,2.9727 -0.65747,4.1062 4.69843,14.612 4.85913,9.45292 7.38716,14.53895 12.9812,25.3483 14.83937,22.30186 31.30302,26.12031 42.88098,10.1302 7.80327,-7.57125 4.10474,-21.56837 13.14441,-26.6664 3.58674,-1.9196 9.12102,-0.2086 11.75386,3.6338 3.80923,11.47581 -6.14575,34.79237 -12.05038,46.1021 -13.49716,20.13098 -40.59562,34.0318 -61.56706,20.5914 -43.8649,-35.07853 -36.53826,-60.24912 -44.20571,-59.4886 -3.1183,0.3488 -9.12791,5.6742 -11.44049,10.138 -7.24101,10.46414 -4.59256,17.95863 5.30808,22.6554 12.67366,6.30037 15.97682,17.93569 7.56902,26.7301 -11.39875,10.31429 -24.05261,0.79203 -31.33364,-8.0644 -8.96958,-7.82302 -4.54925,-33.2488 0.79817,-41.0304 5.75913,-12.26062 14.27675,-15.68817 19.01395,-28.06664 4.9451,-12.9217 -9.22432,-33.11816 -14.84458,-39.49733 -7.80785,-8.35629 -41.95691,-14.03532 -53.45997,-5.4872 -8.17862,6.34321 -12.72847,28.11915 -17.03346,38.19033 -4.07561,9.53457 -17.79839,31.24158 -18.42061,35.61234 -0.37889,3.9432 -0.088,5.1143 1.67957,6.761 7.46921,6.84391 14.45156,-4.46294 34.78403,-3.42934 8.45581,1.47685 18.78276,1.05522 20.02722,-3.70471 2.95793,-11.31377 6.52702,-22.53065 14.86689,-25.18035 18.68367,-2.5478 4.20704,18.81583 -1.13005,25.1118 -9.47408,12.19621 -17.63959,26.40399 -24.3704,39.5 -1.26478,2.475 -3.17157,6.2059 -4.23733,8.2909 -2.6257,5.1368 -7.30077,7.9602 -11.85152,7.1573 -8.13017,-2.18889 -5.37597,-4.85986 -8,-8.9482 -0.32019,-10.81347 -6.5261,-12.02492 -16.87271,-13.30125 -17.6284,-2.81362 -30.06722,8.1749 -35.15294,17.86335 -2.50156,6.0393 -10.35923,8.8643 -17.16609,6.1715 z M 399.26692,835.43376 c 9.0979,-3.81499 28.06903,-32.63399 35.81629,-49.24846 1.2169,-3.7605 4.85546,-8.19948 9.4125,-11.48306 3.34201,-2.79359 2.10709,-6.78851 -0.52307,-9.44815 -2.03173,0 -11.72346,3.33131 -17.01679,5.0847 -15.92571,7.53952 -22.91975,-1.97528 -33.68503,-2.11949 -8.89712,1.96503 -9.00094,8.35514 -13.46009,13.61629 -8.7427,9.46804 -11.49573,24.1257 -12.01199,34.97265 -0.58636,12.92178 -0.56197,13.12612 1.90958,16 7.09454,8.33721 23.38522,6.04214 29.5586,2.62552 z"
       id="path3075"
       inkscape:connector-curvature="0"
       sodipodi:nodetypes="ccccccccccccccccccsscccccssccscccccccccccccsccscccscccscccccccccccccccc" />
    <path
       style="fill:#000000;fill-opacity:1;stroke:none"
       d="m 325.40674,622.74481 c -9.4574,-19.33797 -10.42768,-40.28769 4.89633,-72.73741 9.75352,-20.65379 35.17469,-35.37146 34.94501,-48.21108 -3.91793,-16.48682 -20.67979,-28.38659 -28.33841,-41.34584 -11.537,-18.84138 -39.89733,-43.91425 -57.8584,-39.05443 -9.43706,2.92618 -14.38855,11.54838 -18.7173,19.53425 -3.61403,6.83983 -8.4296,12.6046 -12.67341,11.53947 -3.40783,-0.85531 -12.61965,-7.82215 -8.98133,-14.65879 12.33267,-23.17388 43.63397,-56.51685 64.63816,-57.54984 12.77688,-0.62837 23.54162,7.29125 31.78807,15.272 15.81262,15.51601 27.33166,30.28123 37.14262,43.90073 10.61455,15.37613 19.59023,37.88185 28.02603,23.20092 4.09704,-7.13012 6.70733,-13.87278 9.5173,-20.30098 5.65562,-11.75574 1.58278,-19.01461 -7.51707,-24.44318 -7.92744,-4.38464 -11.73215,-9.53073 -16.14308,-15.53884 -7.62497,-12.88889 6.11279,-27.45071 17.5997,-25.80638 29.34836,4.20118 32.68902,61.06993 10.91348,91.98125 -5.22686,3.81338 -5.01394,6.64768 -0.72402,8.6649 3.90331,1.83542 13.98118,-7.54683 13.95309,-10.699 16.55824,-16.81626 30.24815,-42.54888 37.62277,-59.96708 5.09645,-7.20534 6.85281,-27.93654 14.08826,-30.87671 4.02013,-1.05129 10.38742,9.29429 14.62504,11.24994 84.83477,39.15093 18.5415,185.35942 -34.57784,218.74126 -8.58996,7.22099 -6.83801,22.53296 -20.59653,31.6715 -10.42466,3.07505 -24.40321,-6.47659 -16.36626,-18.04626 1.88277,-2.71034 5.42168,-4.66241 3.57913,-6.70126 -10.76198,-11.90854 -27.03772,-64.23033 -48.19797,-91.44286 -2.75512,-3.54314 -15.20388,5.83741 -18.82675,12.90911 -8.40837,11.48748 -36.09828,57.32412 -14.62091,71.93577 13.81653,6.68523 33.2002,4.53892 31.8009,26.02561 -3.37559,6.6167 -6.55246,8.25531 -17.34137,8.94456 -16.69942,0.79586 -30.66133,-11.48679 -33.65524,-18.19133 z m 141.34134,-41.53429 c 15.09914,-18.52006 52.09612,-67.55525 41.50168,-112.41355 -3.84589,-13.09869 -13.88943,-23.89566 -22.59807,-32.46571 -5.09864,-5.09268 -13.01102,-5.49834 -16.64103,-0.78533 -5.01753,9.15907 -18.07905,18.09228 -23.01394,27.25 -11.39658,21.14876 -29.82809,20.17275 -31.99237,34.22783 -5.15269,15.44972 9.08938,17.12351 39.31331,76.37072 0,5.46224 8.42613,13.95413 13.43042,7.81604 z"
       id="path3099"
       inkscape:connector-curvature="0"
       sodipodi:nodetypes="csccccsssccscccccscsccccsssccccccsscccsc" />
  </g>
</svg>
