<?xml version="1.0" encoding="UTF-8" standalone="no"?>
<!-- Created with Inkscape (http://www.inkscape.org/) -->

<svg
   xmlns:dc="http://purl.org/dc/elements/1.1/"
   xmlns:cc="http://creativecommons.org/ns#"
   xmlns:rdf="http://www.w3.org/1999/02/22-rdf-syntax-ns#"
   xmlns:svg="http://www.w3.org/2000/svg"
   xmlns="http://www.w3.org/2000/svg"
   xmlns:sodipodi="http://sodipodi.sourceforge.net/DTD/sodipodi-0.dtd"
   xmlns:inkscape="http://www.inkscape.org/namespaces/inkscape"
   width="744.09448819"
   height="1052.3622047"
   id="svg2"
   version="1.1"
   inkscape:version="0.48.4 r9939"
   sodipodi:docname="New document 1">
  <defs
     id="defs4" />
  <sodipodi:namedview
     id="base"
     pagecolor="#ffffff"
     bordercolor="#666666"
     borderopacity="1.0"
     inkscape:pageopacity="0.0"
     inkscape:pageshadow="2"
     inkscape:zoom="1.1320876"
     inkscape:cx="641.27664"
     inkscape:cy="289.56213"
     inkscape:document-units="px"
     inkscape:current-layer="g3001"
     showgrid="false"
     inkscape:window-width="1920"
     inkscape:window-height="1023"
     inkscape:window-x="0"
     inkscape:window-y="0"
     inkscape:window-maximized="1" />
  <metadata
     id="metadata7">
    <rdf:RDF>
      <cc:Work
         rdf:about="">
        <dc:format>image/svg+xml</dc:format>
        <dc:type
           rdf:resource="http://purl.org/dc/dcmitype/StillImage" />
        <dc:title></dc:title>
      </cc:Work>
    </rdf:RDF>
  </metadata>
  <g
     inkscape:label="Layer 1"
     inkscape:groupmode="layer"
     id="layer1">
    <g
       id="g3001"
       transform="matrix(1,0,0,-1,0,1052.3622)">
      <path
         id="path3003"
         d="m 330.01775,-53.124242 c 30.11117,122.040504 29.0984,111.026498 110.22012,188.677492 81.12171,77.65099 214.83761,116.75082 168.81539,243.07043 -114.55794,8.30608 -0.77998,110.36941 17.59407,61.12579 0,0 23.09295,-38.38911 29.21421,-73.31752 C 680.02225,228.56902 527.37715,151.28909 491.45147,124.87456 455.52579,98.460027 391.06578,63.091303 381.24852,-53.124242 c 0.30072,-31.113855 -56.83285,-26.150931 -51.23077,0 z"
         inkscape:connector-curvature="0"
         style="fill:currentColor"
         sodipodi:nodetypes="czccszcc" />
      <g
         id="g3062"
         transform="translate(576.55328,-24.026602)">
        <path
           id="path3064"
           d="M 691,662 V 643 Q 654,641 638.5,625 623,609 599,550 L 377,-11 H 362 L 116,538 Q 87,604 67.5,622.5 48,641 10,643 v 19 h 266 v -19 q -28,-2 -29,-2 -46,-3 -46,-31 0,-20 41,-111 L 393,161 540,528 q 19,48 19,73 0,21 -16,30.5 -16,9.5 -57,11.5 v 19 h 205 z"
           inkscape:connector-curvature="0"
           style="fill:currentColor" />
      </g>
      <path
         id="path3003-4"
         d="m 737.3041,36.301963 c 8.4616,125.415187 9.37678,114.392647 75.78213,204.950577 66.40533,90.55793 191.30017,152.28327 124.04197,268.69213 -114.25989,-11.71289 -19.93358,108.55723 6.71237,63.25237 0,0 29.40834,-33.79592 41.50188,-67.13071 C 1033.0758,374.49331 896.16917,271.88089 865.37611,239.62923 834.58306,207.37757 777.24405,161.35281 787.75656,45.198092 793.45557,14.609151 736.32819,9.5755315 737.3041,36.301963 z"
         inkscape:connector-curvature="0"
         style="fill:currentColor"
         sodipodi:nodetypes="czccszcc" />
    </g>
    <g
       id="g3015"
       transform="matrix(1,0,0,-1,1.14286,1054.7908)">
      <path
         id="path3017"
         d="m 289.85714,664.42862 c 28.66667,0 56,-2.33333 82,-7 26,-4.66667 52.83333,-12.83333 80.5,-24.5 27.66667,-11.66667 49.83333,-29.83333 66.5,-54.5 16.66667,-24.66667 25,-54.66667 25,-90 0,-88.66667 -58.66667,-144 -176,-166 -2,-0.66667 -3.66667,-1 -5,-1 l 246,-313.000003 c 14,-16.6666667 27.16667,-28.333333 39.5,-35 12.33333,-6.666667 28.16667,-10.666667 47.5,-12 l 0,-19 -161,0 -278,368.000003 -56,-2 0,-197 c 0,-36.000002 5.33333,-59.333336 16,-70.000003 10.66667,-10.666667 35.33333,-17.333333 74,-20 l 0,-18.9999996 -277,0 0,18.9999996 c 37.333333,2.666667 60.833333,9.833333 70.5,21.5 9.666667,11.666667 14.5,38.166668 14.5,79.500003 l 0,433 c 0,35.33333 -4.833333,58.16667 -14.5,68.5 -9.666667,10.33333 -33.166667,17.5 -70.5,21.5 l 0,19 z m -89,-319 c 80.66667,1.33333 139.83333,12 177.5,32 37.66667,20 56.5,57.66667 56.5,113 0,46.66667 -14.83333,81.16667 -44.5,103.5 -29.66667,22.33333 -75.83333,33.5 -138.5,33.5 -20,0 -33.5,-2.5 -40.5,-7.5 -7,-5 -10.5,-14.5 -10.5,-28.5 z"
         inkscape:connector-curvature="0"
         style="fill:currentColor"
         sodipodi:nodetypes="ssssscccscccccssccccssssccscssssssc" />
    </g>
  </g>
</svg>
