<?xml version="1.0" encoding="UTF-8" standalone="no"?>
<!-- Created with Inkscape (http://www.inkscape.org/) -->

<svg
   xmlns:dc="http://purl.org/dc/elements/1.1/"
   xmlns:cc="http://creativecommons.org/ns#"
   xmlns:rdf="http://www.w3.org/1999/02/22-rdf-syntax-ns#"
   xmlns:svg="http://www.w3.org/2000/svg"
   xmlns="http://www.w3.org/2000/svg"
   xmlns:sodipodi="http://sodipodi.sourceforge.net/DTD/sodipodi-0.dtd"
   xmlns:inkscape="http://www.inkscape.org/namespaces/inkscape"
   width="744.09448819"
   height="1052.3622047"
   id="svg2"
   version="1.1"
   inkscape:version="0.48.4 r9939"
   sodipodi:docname="vr_fancy.svg">
  <defs
     id="defs4" />
  <sodipodi:namedview
     id="base"
     pagecolor="#ffffff"
     bordercolor="#666666"
     borderopacity="1.0"
     inkscape:pageopacity="0.0"
     inkscape:pageshadow="2"
     inkscape:zoom="0.28683914"
     inkscape:cx="834.45562"
     inkscape:cy="794.24748"
     inkscape:document-units="px"
     inkscape:current-layer="layer1"
     showgrid="false"
     inkscape:window-width="959"
     inkscape:window-height="1023"
     inkscape:window-x="0"
     inkscape:window-y="0"
     inkscape:window-maximized="0"
     inkscape:snap-nodes="true" />
  <metadata
     id="metadata7">
    <rdf:RDF>
      <cc:Work
         rdf:about="">
        <dc:format>image/svg+xml</dc:format>
        <dc:type
           rdf:resource="http://purl.org/dc/dcmitype/StillImage" />
        <dc:title />
      </cc:Work>
    </rdf:RDF>
  </metadata>
  <g
     inkscape:label="Layer 1"
     inkscape:groupmode="layer"
     id="layer1">
    <path
       style="fill:currentColor"
       d="m 283.02254,982.45271 c -6.67619,-4.30628 -7.49755,-14.09689 -2.52283,-18.7972 34.23805,-22.29551 54.43803,-74.11889 61.7117,-114.63896 5.05065,-42.23506 -2.9467,-76.48511 -34.86541,-87.81022 -19.05981,-6.05733 -38.22072,11.70833 -39.95764,21.23766 -0.42288,9.12314 -6.48454,12.28247 -11.69614,8.32628 -6.31225,-7.0765 -2.34355,-15.70539 1.52207,-22.45756 10.0151,-21.2559 33.38861,-44.67134 58.46332,-47.00021 11.11265,-0.75744 15.48278,0.47468 21.03667,4.45846 20.08334,12.23414 14.19149,28.22329 31.84984,40.5302 4.17082,1.46812 8.47681,-0.0445 9.77251,-4.44696 4.29904,-13.4298 13.03096,-24.5193 20.66286,-35.18784 5.83897,-10.5309 13.72914,-9.50382 17.71479,1.56827 18.73943,26.54032 42.92247,17.45276 56.41549,-4.79566 5.72889,-7.4219 14.17054,-7.96077 19.76223,-0.58878 2.31158,3.52791 1.88858,7.93889 -1.06815,11.13864 -10.5346,11.00094 -19.47158,25.30521 -29.09188,36.24763 -14.42299,15.95886 -22.8631,37.64988 -32.937,53.48284 -4.22613,5.58787 -4.79744,7.31322 -3.61148,10.90669 1.2513,3.7915 7.00649,7.36133 16.03079,9.94359 7.45486,2.13318 14.36096,6.69224 17.87508,11.67722 7.55887,8.10904 11.21949,6.39023 15.5373,-2.14906 5.51012,-9.94334 13.55773,-19.51636 13.98173,-30.10736 0.76337,-5.78957 -1.89851,-9.41848 -5.36691,-11.77108 -10.12016,-6.99271 -12.34885,-26.09189 -3.00798,-31.89065 4.46772,-2.51099 7.13071,-2.62779 13.05264,-0.57249 6.04228,2.09706 10.31213,6.24457 13.41703,13.03256 4.09107,8.94401 4.27591,13.21249 3.76128,21.70784 -0.76222,16.65076 -7.6333,31.73328 -17.47639,43.45158 -8.19069,8.99205 -16.22677,19.54797 -17.33439,22.76977 -1.02195,2.9727 -0.65747,4.1062 4.69843,14.612 4.85913,9.45292 7.38716,14.53895 12.9812,25.3483 14.83937,22.30186 31.30302,26.12031 42.88098,10.1302 7.80327,-7.57125 4.10474,-21.56837 13.14441,-26.6664 3.58674,-1.9196 9.12102,-0.2086 11.75386,3.6338 3.80923,11.47581 -6.14575,34.79237 -12.05038,46.1021 -13.49716,20.13098 -40.59562,34.0318 -61.56706,20.5914 -43.8649,-35.07853 -36.53826,-60.24912 -44.20571,-59.4886 -3.1183,0.3488 -9.12791,5.6742 -11.44049,10.138 -7.24101,10.46414 -4.59256,17.95863 5.30808,22.6554 12.67366,6.30037 15.97682,17.93569 7.56902,26.7301 -11.39875,10.31429 -24.05261,0.79203 -31.33364,-8.0644 -8.96958,-7.82302 -4.54925,-33.2488 0.79817,-41.0304 5.75913,-12.26062 14.27675,-15.68817 19.01395,-28.06664 4.9451,-12.9217 -9.22432,-33.11816 -14.84458,-39.49733 -7.80785,-8.35629 -41.95691,-14.03532 -53.45997,-5.4872 -8.17862,6.34321 -12.72847,28.11915 -17.03346,38.19033 -4.07561,9.53457 -17.79839,31.24158 -18.42061,35.61234 -0.37889,3.9432 -0.088,5.1143 1.67957,6.761 7.46921,6.84391 14.45156,-4.46294 34.78403,-3.42934 8.45581,1.47685 18.78276,1.05522 20.02722,-3.70471 2.95793,-11.31377 6.52702,-22.53065 14.86689,-25.18035 18.68367,-2.5478 4.20704,18.81583 -1.13005,25.1118 -9.47408,12.19621 -17.63959,26.40399 -24.3704,39.5 -1.26478,2.475 -3.17157,6.2059 -4.23733,8.2909 -2.6257,5.1368 -7.30077,7.9602 -11.85152,7.1573 -8.13017,-2.18889 -5.37597,-4.85986 -8,-8.9482 -0.32019,-10.81347 -6.5261,-12.02492 -16.87271,-13.30125 -17.6284,-2.81362 -30.06722,8.1749 -35.15294,17.86335 -2.50156,6.0393 -10.35923,8.8643 -17.16609,6.1715 z M 399.26692,835.43376 c 9.0979,-3.81499 28.06903,-32.63399 35.81629,-49.24846 1.2169,-3.7605 4.85546,-8.19948 9.4125,-11.48306 3.34201,-2.79359 2.10709,-6.78851 -0.52307,-9.44815 -2.03173,0 -11.72346,3.33131 -17.01679,5.0847 -15.92571,7.53952 -22.91975,-1.97528 -33.68503,-2.11949 -8.89712,1.96503 -9.00094,8.35514 -13.46009,13.61629 -8.7427,9.46804 -11.49573,24.1257 -12.01199,34.97265 -0.58636,12.92178 -0.56197,13.12612 1.90958,16 7.09454,8.33721 23.38522,6.04214 29.5586,2.62552 z"
       id="path3075"
       inkscape:connector-curvature="0"
       sodipodi:nodetypes="ccccccccccccccccccsscccccssccscccccccccccccsccscccscccscccccccccccccccc" />
    <path
       style="fill:#000000;fill-opacity:1;stroke:none"
       d="m 325.40674,622.74481 c -9.4574,-19.33797 -10.42768,-40.28769 4.89633,-72.73741 9.75352,-20.65379 35.17469,-35.37146 34.94501,-48.21108 -3.91793,-16.48682 -20.67979,-28.38659 -28.33841,-41.34584 -11.537,-18.84138 -39.89733,-43.91425 -57.8584,-39.05443 -9.43706,2.92618 -14.38855,11.54838 -18.7173,19.53425 -3.61403,6.83983 -8.4296,12.6046 -12.67341,11.53947 -3.40783,-0.85531 -12.61965,-7.82215 -8.98133,-14.65879 12.33267,-23.17388 43.63397,-56.51685 64.63816,-57.54984 12.77688,-0.62837 23.54162,7.29125 31.78807,15.272 15.81262,15.51601 27.33166,30.28123 37.14262,43.90073 10.61455,15.37613 19.59023,37.88185 28.02603,23.20092 4.09704,-7.13012 6.70733,-13.87278 9.5173,-20.30098 5.65562,-11.75574 1.58278,-19.01461 -7.51707,-24.44318 -7.92744,-4.38464 -11.73215,-9.53073 -16.14308,-15.53884 -7.62497,-12.88889 6.11279,-27.45071 17.5997,-25.80638 29.34836,4.20118 32.68902,61.06993 10.91348,91.98125 -5.22686,3.81338 -5.01394,6.64768 -0.72402,8.6649 3.90331,1.83542 13.98118,-7.54683 13.95309,-10.699 16.55824,-16.81626 30.24815,-42.54888 37.62277,-59.96708 5.09645,-7.20534 6.85281,-27.93654 14.08826,-30.87671 4.02013,-1.05129 10.38742,9.29429 14.62504,11.24994 84.83477,39.15093 18.5415,185.35942 -34.57784,218.74126 -8.58996,7.22099 -6.83801,22.53296 -20.59653,31.6715 -10.42466,3.07505 -24.40321,-6.47659 -16.36626,-18.04626 1.88277,-2.71034 5.42168,-4.66241 3.57913,-6.70126 -10.76198,-11.90854 -27.03772,-64.23033 -48.19797,-91.44286 -2.75512,-3.54314 -15.20388,5.83741 -18.82675,12.90911 -8.40837,11.48748 -36.09828,57.32412 -14.62091,71.93577 13.81653,6.68523 33.2002,4.53892 31.8009,26.02561 -3.37559,6.6167 -6.55246,8.25531 -17.34137,8.94456 -16.69942,0.79586 -30.66133,-11.48679 -33.65524,-18.19133 z m 141.34134,-41.53429 c 15.09914,-18.52006 52.09612,-67.55525 41.50168,-112.41355 -3.84589,-13.09869 -13.88943,-23.89566 -22.59807,-32.46571 -5.09864,-5.09268 -13.01102,-5.49834 -16.64103,-0.78533 -5.01753,9.15907 -18.07905,18.09228 -23.01394,27.25 -11.39658,21.14876 -29.82809,20.17275 -31.99237,34.22783 -5.15269,15.44972 9.08938,17.12351 39.31331,76.37072 0,5.46224 8.42613,13.95413 13.43042,7.81604 z"
       id="path3099"
       inkscape:connector-curvature="0"
       sodipodi:nodetypes="csccccsssccscccccscsccccsssccccccsscccsc" />
    <g
       id="g3033"
       transform="matrix(1,0,0,-1,-855.11477,878.80322)" />
    <g
       id="g3019"
       transform="matrix(1,0,0,-1,-1153.5629,446.07434)" />
    <g
       id="g3134"
       transform="matrix(2.4940516,0,0,-2.4940516,781.18107,2423.1487)"
       style="fill:#000000">
      <path
         id="path3136"
         d="m 146.887,682.155 q 6.37906,2.67462 17.8823,19.0656 11.50324,16.39098 17.9341,30.1825 1.9837,6.13104 9.41211,11.4834 4.82925,4.03485 -0.52246,9.44824 -1.67113,0 -17.0166,-5.08496 -9.39374,-3.258 -13.4191,-2.83319 -4.02536,0.42481 -10.2876,2.66376 -6.26224,2.23895 -9.97894,2.28857 -3.99219,-0.88165 -6.17886,-2.92242 -2.18669,-2.04077 -4.06122,-5.57343 -1.87451,-3.53265 -3.21988,-5.12036 -10.911,-11.8152 -12.0117,-34.9727 -0.59448,-13.0887 1.90918,-16 4.80466,-5.64594 15.1246,-5.72021 10.31994,-0.0743 14.434,3.09521 z M 30.6426,535.136 q -4.9199,3.1734 -5.63098,9.25134 -0.71108,6.07794 3.10754,9.54651 23.7287,15.4513 39.6122,47.73 15.8836,32.2787 22.0997,66.9087 8.6544,72.3693 -34.8652,87.8105 -12.9842,4.1261 -25.6869,-4.25452 -12.7027,-8.38068 -14.2711,-16.9838 -0.308042,-6.64606 -4.05212,-9.06775 -3.744078,-2.42169 -7.64319,0.74158 -6.90353,7.73871 1.52148,22.458 8.16636,17.3311 24.45,31.3422 16.2837,14.011 34.0139,15.6578 13.5339,0.92297 21.0361,-4.45801 10.4681,-6.37701 16.9703,-20.5344 6.50214,-14.1575 14.8793,-19.9958 7.67014,-2.70099 9.77246,4.44629 3.65282,11.4089 20.6631,35.1885 4.40041,7.83862 9.55249,7.31641 5.15208,-0.52221 8.16235,-8.88477 14.8878,-18.5316 30.1753,-15.8984 15.2875,2.6332 26.2407,20.6934 10.1915,13.2059 19.7617,0.58886 3.82732,-5.84039 -1.06836,-11.1387 -5.77434,-6.03033 -15.4049,-18.8317 -9.63056,-12.80137 -13.6869,-17.4154 -8.5799,-9.49377 -20.2234,-30.6479 -11.6435,-21.15413 -12.7131,-22.8354 -5.02065,-6.63776 -3.61133,-10.9062 1.9514,-5.9151 16.0303,-9.94336 12.0818,-3.45807 17.875,-11.6777 9.36929,-10.0496 15.5371,2.14941 1.38319,2.49518 4.33788,7.24835 2.95469,4.75317 4.67305,7.724 1.71836,2.97083 3.27078,7.19965 1.5524,4.22882 1.70071,7.93542 0.98332,7.46356 -5.36719,11.7705 -7.66199,5.29462 -8.80176,16.3932 -1.13977,11.09858 5.79395,15.4974 5.61192,3.15497 13.0527,0.57325 8.86198,-3.07672 13.417,-13.0332 4.48215,-9.79889 3.76074,-21.708 -1.09567,-23.9501 -17.4766,-43.4512 -15.2698,-16.7646 -17.334,-22.7695 -1.10751,-3.22308 4.69824,-14.6123 1.8045,-3.51019 5.8175,-11.3843 4.013,-7.87411 7.16394,-13.9644 11.1199,-16.7112 22.6636,-19.4244 11.5437,-2.71326 20.2173,9.29456 3.60968,3.5022 5.98688,13.7365 2.3772,10.2343 7.15765,12.9305 6.7789,3.62659 11.7539,-3.63477 4.67224,-14.0743 -12.0508,-46.1016 -10.8846,-16.2343 -27.9806,-22.8851 -17.096,-6.6508 -33.5858,2.29333 -12.1511,9.71722 -20.5773,19.6249 -8.4262,9.90768 -11.8529,16.7939 -3.42662,6.88611 -5.40775,12.4563 -1.98111,5.57025 -3.1655,8.19232 -1.18439,2.62207 -3.20264,2.42181 -6.56856,-0.73444 -11.4404,-10.1387 -10.4908,-15.1596 5.30762,-22.6553 9.50713,-4.72571 11.6904,-12.4294 2.18327,-7.70369 -4.12109,-14.3 -14.1654,-12.8183 -31.334,8.06445 -6.04257,6.86206 -4.96924,20.5302 1.07333,13.66814 5.76807,20.5001 2.71614,5.78271 9.62584,13.6868 6.9097,7.90411 9.38783,14.3796 6.04279,15.7895 -14.8447,39.4971 -6.20735,6.64374 -25.3442,9.08276 -19.13685,2.43902 -28.1157,-3.59546 -3.64493,-2.82666 -6.76034,-9.71204 -3.11541,-6.88538 -6.09521,-16.2808 -2.9798,-9.39532 -4.17766,-12.1976 -1.64359,-3.84521 -6.23361,-12.0524 -4.59003,-8.20715 -8.25575,-14.9497 -3.66572,-6.74249 -3.93153,-8.61023 -0.458267,-4.76929 1.67969,-6.76074 5.33733,-2.95178 7.81977,-1.92291 2.48244,1.02887 10.5698,3.40149 8.08736,2.37262 16.3946,1.95013 18.227,-3.18274 20.0273,3.70508 5.83336,22.3108 14.8672,25.1807 11.7322,1.59998 8.63803,-8.62805 -2.33395,-7.71497 -9.76889,-16.4843 -12.0296,-15.4869 -24.3701,-39.5 -0.18784,-0.39319 -1.9024,-3.7002 -1.71455,-3.30701 -2.3349,-4.59082 -4.33656,-8.48285 -11.8516,-7.15723 -3.67348,0.98932 -4.95688,2.16821 -1.28341,1.17883 -1.75682,3.34625 -0.4734,2.16742 -1.2863,3.43378 -0.219925,7.42468 -4.00109,9.80249 -3.781165,2.37781 -12.872,3.49927 -23.7825,3.79578 -35.1523,-17.8633 -4.61332,-11.1371 -17.166,-6.17188 z"
         inkscape:connector-curvature="0"
         style="fill:#000000" />
    </g>
    <g
       id="g3234"
       transform="matrix(1,0,0,-1,788.52956,188.55642)">
      <path
         id="path3236"
         d="m 229,36 q 7,-16 31.5,-32 24.5,-16 53.5,-14 20,1 29,5.5 9,4.5 15,17.5 v 0 q 1,19 -7,31 -8,12 -18,16 -10,4 -28,9.5 -18,5.5 -27,9.5 -18,12 -20,36 -2,24 8.5,51.5 10.5,27.5 21.5,49 11,21.5 23,38.5 l 4,6 v 0 q 7,14 24.5,26 17.5,12 21.5,6 29,-38 70,-128 41,-90 52,-102 1,-4 1,-5 0,-1 -4,-5 -4,-4 -6,-7 -17,-24 7,-40 16,-11 35,-6 v 0 q 19,13 31.5,43 12.5,30 20.5,37 43,27 86,86.5 43,59.5 71,131.5 28,72 32.5,145 4.5,73 -28.5,127 -26,41 -74,63 -3,2 -17,16 -14,14 -20,12 v 0 Q 607,656 596.5,622 586,588 582,582 v 0 Q 541,486 487,431 v 0 q 0,-6 -14,-18 -14,-12 -20,-9 -10,5 -7,12 2,4 9,9 v 0 q 36,51 35.5,123.5 Q 490,621 452,648 q -11,8 -25,10 -16,2 -32,-10.5 -16,-12.5 -18,-29.5 -2,-13 5,-26 v 0 q 21,-28 41,-39 37,-22 19,-61 -17,-39 -24,-51 -9,-16 -22,-10 -7,4 -14,14.5 -7,10.5 -18,28 -11,17.5 -16,25.5 -46,64 -94,111 -42,41 -81,39 Q 136,647 86,599.5 36,552 10,503 4,491 13.5,479.5 23,468 33,465 q 15,-4 32,30 22,41 47,49 31,8 76,-25 45,-33 70,-73 5,-8 35,-44 30,-36 36,-61 0,-14 -16,-32.5 Q 297,290 274,265.5 251,241 241,220 213,161 211.5,115.5 210,70 229,36 z m 154,557 q -7,12 -5,24 2,17 17.5,29.5 15.5,12.5 31.5,10.5 13,-2 24,-10 38,-26 38.5,-98 0.5,-72 -35.5,-123 -7,-5 -9,-10 -4,-8 7,-13 7,-3 21.5,8.5 14.5,11.5 14.5,18.5 54,55 95,152 5,7 15,40 10,33 20,37 5,1 19,-12.5 14,-13.5 18,-15.5 47,-22 73,-63 34,-54 29,-126.5 Q 752,369 724,297.5 696,226 653,166.5 610,107 567,80 v 0 Q 558,72 546.5,42.5 535,13 516,0 q -18,-5 -34,6 -23,16 -7,39 1,2 5.5,6 4.5,4 4.5,5.5 0,1.5 -1,5.5 Q 473,74 432.5,164.5 392,255 362,293 q -5,7 -23,-6 -18,-13 -25,-27 -2,-3 -5,-6 -12,-17 -23,-38.5 -11,-21.5 -21.5,-49 -10.5,-27.5 -8,-52 Q 259,90 277,78 v 0 q 9,-4 27,-9.5 Q 322,63 332,59 342,55 350,43.5 358,32 357,13 351,1 342.5,-3.5 334,-8 314,-9 286,-10 261,5.5 236,21 229,36 q -19,34 -17,79.5 2,45.5 30,104.5 10,21 33,45.5 23,24.5 39,43 16,18.5 16,32.5 v 1 q -6,24 -36.5,60 Q 263,438 258,446 233,486 188.5,519.5 144,553 112,545 96,540 85.5,527.5 75,515 64,495 47,463 33,466 24,468 14.5,480 5,492 11,503 37,551 86.5,598.5 136,646 173,648 q 38,2 80,-39 47,-47 94,-110 6,-8 16.5,-26 10.5,-18 18,-28.5 Q 389,434 396,430 q 12,-7 22,10 7,12 24,51 19,40 -19,63 -19,11 -40,39 z M 585,141 q -9,-11 -22,0 -11,9 -11,20 v 0 q -15,30 -30,56 -15,26 -25,41 -10,15 -20,29.5 -10,14.5 -14.5,21 -4.5,6.5 -9,16 -4.5,9.5 -3,14 1.5,4.5 2.5,14.5 v 0 q 2,15 16,25 14,10 33.5,24.5 19.5,14.5 31.5,37.5 6,11 28.5,34 22.5,23 29.5,34 7,9 19.5,8.5 Q 624,516 633,506 679,460 690,425 718,304 585,141 z m 1,0 q 133,164 105,284 v 0 q -11,36 -57,82 -10,10 -23,10.5 -13,0.5 -20,-8.5 v 0 Q 585,498 562,475 539,452 533,440 524,422 509.5,409 495,396 484,390 473,384 463.5,375 454,366 452,354 q -2,-11 -3,-15.5 -1,-4.5 3.5,-14 4.5,-9.5 9,-16.5 4.5,-7 14.5,-21.5 10,-14.5 20,-29.5 10,-15 25,-41 15,-26 30,-55 0,-11 12,-21 13,-11 23,1 z m -1,0 q -9,-11 -22,0 -11,9 -11,20 v 0 q -15,30 -30,56 -15,26 -25,41 -10,15 -20,29.5 -10,14.5 -14.5,21 -4.5,6.5 -9,16 -4.5,9.5 -3,14 1.5,4.5 2.5,14.5 v 0 q 2,15 16,25 14,10 33.5,24.5 19.5,14.5 31.5,37.5 6,11 28.5,34 22.5,23 29.5,34 7,9 19.5,8.5 Q 624,516 633,506 679,460 690,425 718,304 585,141 z m 1,0 q 133,164 105,284 v 0 q -11,36 -57,82 -10,10 -23,10.5 -13,0.5 -20,-8.5 v 0 Q 585,498 562,475 539,452 533,440 524,422 509.5,409 495,396 484,390 473,384 463.5,375 454,366 452,354 q -2,-11 -3,-15.5 -1,-4.5 3.5,-14 4.5,-9.5 9,-16.5 4.5,-7 14.5,-21.5 10,-14.5 20,-29.5 10,-15 25,-41 15,-26 30,-55 0,-11 12,-21 13,-11 23,1 z M 229,36 q -19,34 -17,79.5 2,45.5 29,104.5 10,21 33,45.5 23,24.5 39.5,43.5 16.5,19 16.5,32 -6,24 -36.5,60.5 Q 263,438 258,446 233,486 188.5,519.5 144,553 112,544 96,539 86,527 76,515 65,495 48,462 33,466 q -9,2 -19,14 -10,12 -4,23 26,49 76,96 50,47 87,49 38,2 80,-38 48,-47 94,-111 6,-8 15.5,-24 9.5,-16 15.5,-24.5 6,-8.5 13.5,-16.5 7.5,-8 14,-6 6.5,2 12.5,12 7,12 24,52 19,39 -19,61 -20,11 -41,39 -14,23 4,46 18,23 41,20 35,-5 51.5,-46.5 Q 495,570 488,517 q -7,-53 -34,-92 -19,-14 -2,-21 7,-3 21.5,8.5 14.5,11.5 14.5,18.5 54,55 95,151 5,6 15,40 10,34 20,38 6,2 19.5,-12.5 Q 651,633 655,631 q 51,-24 77,-69 26,-45 26,-99 0,-54 -16,-113 Q 726,291 698,238 670,185 635.5,142.5 601,100 568,79 559,72 547,42 535,12 516,-1 495,-7 477.5,8.5 460,24 474,45 q 1,2 5.5,6.5 4.5,4.5 5,5.5 0.5,1 -1.5,5 -11,13 -51.5,103 -40.5,90 -69.5,128 -5,6 -23,-6.5 Q 321,274 314,260 303,245 291.5,223.5 280,202 268,173 256,144 257.5,117.5 259,91 277,79 286,75 304.5,69.5 323,64 333,60 343,56 351,44 359,32 358,13 352,0 343,-4 334,-8 314,-10 285,-11 260.5,4.5 236,20 229,36 z m 357,105 q 133,163 104,284 -11,36 -57,82 -10,10 -22.5,10.5 Q 598,518 591,509 585,497 562.5,474 540,451 533,440 523,422 509,409 495,396 484,390 473,384 463.5,374.5 454,365 453,353 q -2,-11 -3,-15 -1,-4 3.5,-13.5 4.5,-9.5 9,-16 4.5,-6.5 14,-21 Q 486,273 496.5,258 507,243 522,216.5 537,190 552,161 q 0,-12 12.5,-21 12.5,-9 21.5,1 z"
         inkscape:connector-curvature="0"
         style="fill:currentColor" />
    </g>
  </g>
</svg>
