<?xml version="1.0" encoding="UTF-8" standalone="no"?>
<!-- Created with Inkscape (http://www.inkscape.org/) -->

<svg
   xmlns:dc="http://purl.org/dc/elements/1.1/"
   xmlns:cc="http://creativecommons.org/ns#"
   xmlns:rdf="http://www.w3.org/1999/02/22-rdf-syntax-ns#"
   xmlns:svg="http://www.w3.org/2000/svg"
   xmlns="http://www.w3.org/2000/svg"
   xmlns:sodipodi="http://sodipodi.sourceforge.net/DTD/sodipodi-0.dtd"
   xmlns:inkscape="http://www.inkscape.org/namespaces/inkscape"
   id="svg3023"
   version="1.1"
   inkscape:version="0.48.4 r9939"
   width="615"
   height="57"
   sodipodi:docname="separator4.png">
  <metadata
     id="metadata3029">
    <rdf:RDF>
      <cc:Work
         rdf:about="">
        <dc:format>image/svg+xml</dc:format>
        <dc:type
           rdf:resource="http://purl.org/dc/dcmitype/StillImage" />
        <dc:title></dc:title>
      </cc:Work>
    </rdf:RDF>
  </metadata>
  <defs
     id="defs3027" />
  <sodipodi:namedview
     pagecolor="#ffffff"
     bordercolor="#666666"
     borderopacity="1"
     objecttolerance="10"
     gridtolerance="10"
     guidetolerance="10"
     inkscape:pageopacity="0"
     inkscape:pageshadow="2"
     inkscape:window-width="1920"
     inkscape:window-height="1023"
     id="namedview3025"
     showgrid="false"
     inkscape:zoom="2.8602074"
     inkscape:cx="306.80195"
     inkscape:cy="28.549968"
     inkscape:window-x="0"
     inkscape:window-y="0"
     inkscape:window-maximized="1"
     inkscape:current-layer="svg3023" />
  <path
     style="fill:#000000"
     d="m 301.15407,51.640218 c -0.91699,-2.46686 -0.4142,-4.53855 1.59487,-6.57142 1.82924,-1.85093 1.62912,-3.45738 -0.67663,-5.43163 -2.45045,-2.09814 -3.94439,-1.57976 -6.51742,2.26151 -2.19951,3.28364 -4.23503,3.84563 -5.16367,1.42563 -0.37238,-0.97042 0.59026,-2.79487 2.53139,-4.79761 3.20251,-3.30414 4.027,-5.63648 1.99252,-5.63648 -0.62686,0 -1.69152,-0.75458 -2.36591,-1.67686 -1.06696,-1.459161 -1.63051,-1.509367 -4.34083,-0.38672 -6.29541,2.60765 -11.91793,-1.594604 -8.70152,-6.503473 1.94951,-2.975324 5.57089,-3.170136 8.04802,-0.432942 2.22502,2.458617 4.2874,2.5037 7.33372,0.160311 l 2.33372,-1.795217 -3.58372,-2.733438 c -1.97105,-1.503391 -3.58372,-3.35898 -3.58372,-4.12353 0,-2.875176 2.07594,-2.491223 5.08981,0.941377 3.67382,4.184256 4.21614,4.274997 7.47727,1.251107 2.39488,-2.220662 2.42531,-2.408582 0.88883,-5.488546 -0.87503,-1.754035 -1.44808,-4.43181 -1.27344,-5.95061 0.26817,-2.33221 0.84527,-2.811846 3.71267,-3.085637 5.08965,-0.485984 6.62422,3.387566 3.62221,9.143179 -1.36656,2.620029 -1.30905,2.992929 0.81471,5.283309 l 2.28504,2.464314 3.73175,-4.03331 c 3.78836,-4.094486 5.08473,-4.758806 6.09538,-3.123551 0.92573,1.497873 -0.32442,3.445526 -3.9092,6.090242 l -3.38862,2.5 2.5768,2.711285 2.57679,2.711285 2.75437,-1.961285 c 3.58004,-2.549211 7.45064,-2.506073 9.27839,0.103407 1.9997,2.85498 1.03402,5.540744 -2.5218,7.013613 -2.53637,1.0506 -3.44051,0.98103 -5.86523,-0.45129 -2.38964,-1.411598 -3.206,-1.481423 -4.90618,-0.41964 -1.12175,0.70054 -2.02524,1.72797 -2.00775,2.28317 0.0485,1.53837 2.54768,4.50945 3.79326,4.50945 1.44598,0 3.44043,3.76141 2.66217,5.02067 -1.08442,1.75462 -2.83665,1.04403 -6.68012,-2.70902 l -3.77722,-3.68835 -2.51494,2.36266 c -2.6241,2.46521 -3.2394,4.60589 -1.49137,5.18857 0.56296,0.18766 1.30415,2.07019 1.64708,4.18341 0.72182,4.44808 -0.39757,5.60317 -5.45288,5.62675 -2.49711,0.0117 -3.48229,-0.52289 -4.1186,-2.23469 z m 6.72037,-2.92167 c -0.17575,-1.19442 -0.82661,-2.33844 -1.44634,-2.54226 -1.64844,-0.54216 -2.67887,2.90307 -1.15708,3.86867 2.14308,1.35982 2.93902,0.95431 2.60342,-1.32641 z m 1.06038,-11.20052 c 1.96056,-2.08691 2.03181,-2.44769 0.59253,-3 -2.29308,-0.87994 -4.72016,-0.75676 -6.4327,0.32646 -1.2497,0.79047 -1.19131,1.22079 0.40499,2.98468 2.35431,2.60149 2.7185,2.58064 5.43518,-0.31114 z m -8.34314,-9.24324 c -0.4572,-4.164965 -2.22479,-5.141011 -4.74542,-2.620378 l -2.18641,2.186409 2.3601,2.512215 c 2.7737,2.952464 5.01225,1.934854 4.57173,-2.078246 z m 16.00176,1.763774 2.354,-1.851661 -2.92387,-2.16171 -2.92386,-2.161709 -0.63026,2.511134 c -0.63409,2.526421 -0.0128,5.515602 1.14633,5.515602 0.34301,0 1.68295,-0.83324 2.97766,-1.851656 z m -28.28855,-2.648339 c -0.1375,-0.55 -1.41438,-1.388125 -2.8375,-1.8625 -2.83499,-0.944998 -5.11933,0.409808 -3.93152,2.331727 0.85462,1.382802 7.12339,0.948252 6.76902,-0.469227 z m 43.05282,0 c -0.26339,-1.335816 -2.90621,-1.816358 -5.88191,-1.069504 -4.06248,1.019616 -2.76235,2.709204 1.82909,2.377002 2.3375,-0.169124 4.16127,-0.757498 4.05282,-1.307498 z m -21.30282,-5.522671 c 1.27051,-0.840268 1.11782,-1.287939 -0.99798,-2.926039 -2.47917,-1.919432 -2.51501,-1.917989 -4.7607,0.191727 -1.69751,1.594729 -1.94781,2.325635 -1.00202,2.926039 1.72695,1.096306 4.95142,1.004863 6.7607,-0.191727 z M 308.03958,8.262668 c 0.008,-1.170156 -0.56907,-2.612548 -1.28331,-3.205316 -1.01771,-0.844622 -1.34955,-0.321575 -1.53405,2.417958 -0.27989,4.156036 0.67917,6.265238 1.94236,4.271676 0.47283,-0.74622 0.86658,-2.314163 0.875,-3.484318 z m -46.90796,39.03866 c -2.27635,-1.91542 -3.07673,-3.43646 -3.07673,-5.84699 0,-5.62308 5.65914,-9.88727 10.02256,-7.55204 2.78206,1.48891 2.15729,4.44378 -0.94483,4.46866 -4.5833,0.0368 -3.33285,4.45078 1.36209,4.80814 1.98808,0.15132 3.35182,-0.54977 4.81466,-2.47519 1.76641,-2.32499 1.87908,-3.07704 0.83764,-5.59129 -1.3557,-3.27294 -6.6151,-6.222395 -11.09563,-6.222395 -4.18731,0 -16.72471,7.616865 -19.29618,11.723035 -1.25083,1.99735 -2.51185,1.58031 -9.07332,-3.00074 -3.36984,-2.35274 -7.25199,-4.78157 -8.62699,-5.3974 -4.76422,-2.133778 -14.53774,-3.664094 -22.5,-3.523 -8.20107,0.145324 -11.84747,-0.854428 -9.96872,-2.733176 0.55801,-0.55801 6.17925,-1.156848 12.49164,-1.330751 10.1761,-0.280346 12.39767,-0.682771 19.59836,-3.550125 4.46671,-1.778666 9.41671,-4.348017 11,-5.709669 3.61945,-3.112765 5.7195,-3.13321 7.7232,-0.07519 2.18048,3.327839 12.32695,9.249348 17.15552,10.012015 5.26772,0.832031 10.01115,-1.747339 12.8941,-6.717946 1.30332,-2.2471 0.75764,-5.330972 0.75764,-5.330972 -1.54823,-3.6944398 -5.86995,-5.0439637 -8.95174,-2.166083 -3.03322,3.033219 0.1423,7.42066 3.40878,4.709723 1.379,-1.144471 1.53865,-1.000209 1.23726,1.118001 -0.22581,1.587055 -1.30219,2.766912 -3.09805,3.395901 -4.0072,1.403495 -8.14028,-1.857591 -8.55709,-6.751725 -0.27109,-3.183161 0.0978,-3.877479 3,-5.64692 4.50755,-2.748182 8.90333,-2.593765 12.16308,0.427271 2.61638,2.424785 3.01306,3.674129 2.71399,8.547749 -0.23432,3.818372 -1.82809,6.325778 -5.2801,8.306959 l -3.13879,1.80142 2.92546,1.783751 c 3.98579,2.430277 5.08892,4.007357 5.6712,8.107867 1.43464,10.10293 -8.74532,16.65773 -16.16901,10.41111 z m -16.07673,-15.41111 c 2.475,-1.645286 5.20149,-2.993359 6.05887,-2.995714 0.85738,-0.0024 2.43238,-0.664969 3.5,-1.472478 1.90232,-1.438842 1.89843,-1.468832 -0.19456,-1.5 -2.40169,-0.03576 -5.40979,-1.469481 -10.03276,-4.781803 -3.89821,-2.793045 -4.01685,-2.790651 -9.63088,0.19436 -2.52846,1.344397 -6.43493,2.994954 -8.68104,3.667904 -4.2838,1.283459 -4.26822,2.454477 0.0429,3.227709 1.40942,0.252786 5.00942,1.810013 8,3.460502 2.99059,1.65049 5.66243,3.04366 5.93743,3.09593 0.275,0.0523 2.525,-1.25111 5,-2.89641 z m 94.74663,16.33774 c -3.08041,-1.62234 -5.74856,-6.05373 -5.74289,-9.53808 0.004,-2.66857 3.43076,-8.69503 5.25198,-9.237302 5.24938,-1.563008 5.37434,-1.747272 2.12424,-3.132364 -1.71602,-0.731316 -4.01979,-2.750729 -5.11949,-4.487584 -1.66592,-2.631144 -1.84568,-3.842325 -1.0776,-7.260793 1.15634,-5.14647 2.11513,-6.294825 6.45023,-7.725539 6.24065,-2.059601 12.3669,1.34343 12.3669,6.869613 0,5.302991 -7.00795,9.27952 -10,5.674314 -1.02929,-1.24022 -0.92061,-1.520509 0.62756,-1.618421 1.02984,-0.06513 2.24082,-0.05484 2.69107,0.02288 0.45025,0.07771 0.67525,-1.102649 0.5,-2.623029 -0.53118,-4.608346 -7.52618,-4.413467 -9.65971,0.269118 -2.25094,4.940287 3.29669,10.449452 10.52242,10.449452 3.9096,0 8.4956,-2.401456 15.13051,-7.923083 l 6.26666,-5.215167 3.26504,2.86674 c 1.79577,1.576707 4.8156,3.445084 6.71074,4.151949 1.89514,0.706864 5.00832,1.963398 6.91818,2.792296 3.78527,1.642843 7.42539,2.108242 22.40146,2.864081 5.43066,0.274085 10.20236,0.701316 10.60377,0.949403 0.40142,0.248087 1.236,-0.659822 1.85463,-2.017576 0.86734,-1.903597 1.88503,-2.468643 4.44623,-2.468643 4.13758,0 5.72144,1.518239 5.72144,5.484392 0,5.199733 -8.02155,8.173803 -9.49812,3.521523 -0.45434,-1.43148 -1.33778,-1.774728 -3.79699,-1.475257 -1.76269,0.214652 -8.47016,0.615372 -14.9055,0.890489 -6.43533,0.275117 -12.51033,0.912668 -13.5,1.416778 -0.98966,0.50411 -3.58174,1.48523 -5.76018,2.18027 -2.17843,0.69504 -6.11131,2.77528 -8.73974,4.62275 -2.62843,1.84748 -5.23474,3.35905 -5.79182,3.35905 -0.55707,0 -2.62225,-1.7814 -4.58928,-3.95867 -3.93693,-4.35771 -11.54063,-9.041325 -14.6783,-9.041325 -3.33243,0 -9.61557,2.203395 -11.13102,3.903465 -1.40437,1.57546 -1.94915,3.90449 -1.7242,7.37129 0.15564,2.39874 4.63805,4.05095 7.22868,2.66448 2.19571,-1.17511 1.75424,-4.77972 -0.76556,-6.2507 -2.03493,-1.18793 -0.64596,-2.68854 2.48854,-2.68854 4.30658,0 7.16349,2.58644 7.16349,6.48528 0,3.81263 -1.93085,6.17006 -6.67822,8.15364 -3.82089,1.59647 -3.98436,1.58997 -7.57515,-0.30118 z m 37.96661,-16.33774 c 1.04748,0 2.77801,-0.66068 3.84563,-1.468192 1.06762,-0.807508 3.29113,-1.514136 4.94113,-1.570285 3.50038,-0.119116 7.88005,-1.714127 5.5,-2.003016 -0.825,-0.100138 -3.0545,-0.358765 -4.95444,-0.574727 -1.89995,-0.215963 -3.90245,-0.84066 -4.45,-1.388217 -0.54756,-0.547557 -1.5895,-0.995558 -2.31543,-0.995558 -0.72593,0 -2.99843,-1.032148 -5.05,-2.293663 -2.05157,-1.261515 -4.18013,-2.241904 -4.73013,-2.178642 -1.70732,0.196379 -6.5,2.756969 -6.5,3.47276 0,0.373684 -1.8,1.27348 -4,1.999545 -4.84903,1.600326 -5.06336,2.572761 -0.75,3.402924 1.7875,0.344028 5.04757,2.146372 7.24461,4.005211 l 3.99461,3.3797 2.65976,-1.89392 c 1.46287,-1.04165 3.51679,-1.89392 4.56426,-1.89392 z m 51.8609,-4.695786 c -0.30635,-2.087301 -2.57414,-3.016048 -2.57414,-1.054209 0,0.779167 0.3,1.716667 0.66667,2.083333 1.20873,1.208732 2.16055,0.695204 1.90747,-1.029124 z m -259.38474,5.367096 c -2.00693,-0.89552 -2.24619,-1.62756 -1.98564,-6.075377 0.26501,-4.524039 0.59171,-5.160589 3.09901,-6.03815 3.63985,-1.27396 5.85649,0.117899 6.95808,4.369084 1.47637,5.697471 -3.01061,10.002663 -8.07145,7.744443 z m 3.10383,-4.993071 c 0.58429,-1.522643 -2.92027,-4.090708 -3.75011,-2.747997 -0.82496,1.334814 0.49009,4.069763 1.95688,4.069763 0.70731,0 1.51427,-0.594795 1.79323,-1.321766 z m 261.68202,3.756661 c -2.31116,-6.078794 -0.63729,-9.434895 4.7057,-9.434895 2.74238,0 3.39617,0.451409 3.98288,2.75 1.52708,5.982757 -0.17224,9.249995 -4.81103,9.249995 -2.1953,0 -3.13987,-0.62486 -3.87755,-2.5651 z m 3.2148,-4.45018 c -0.77425,-2.093 -0.9177,-2.136822 -1.55535,-0.475133 -0.41612,1.084378 -0.19092,2.146653 0.55247,2.606095 1.7452,1.078594 1.99434,0.549211 1.00288,-2.130962 z m 4.23574,-0.317498 c -0.35187,-0.916969 -1.04162,-1.667217 -1.53278,-1.667217 -1.04564,0 -1.20723,3.352447 -0.20968,4.35 1.12469,1.124685 2.43146,-0.887289 1.74246,-2.682783 z m 5.72652,5.016308 c -1.33679,-1.610734 -1.82015,-6.793927 -0.78913,-8.462143 0.97088,-1.570924 6.87232,-1.585881 8.43682,-0.02138 1.79324,1.79324 1.44801,6.265583 -0.62874,8.145013 -2.19774,1.98893 -5.51639,2.14898 -7.01895,0.33851 z m 6.84769,-4.124508 c 0,-1.974649 -1.30494,-2.613917 -3.04775,-1.493034 -1.26384,0.812842 -1.25765,1.061766 0.0478,1.918704 2.10053,1.378912 3,1.251286 3,-0.42567 z m -298.64523,2.690983 c -0.43112,-1.647349 -4.92761,-1.75 -76.656377,-1.75 -41.909117,0 -76.7608945,-0.160645 -77.4483945,-0.356989 -0.6875,-0.196344 -1.25,-1.003113 -1.25,-1.79282 0,-1.215869 4.2511531,-1.419321 27.7500005,-1.328061 15.2625,0.05927 49.476774,0.06081 76.031721,0.0034 26.55495,-0.0574 48.71829,0.165451 49.25187,0.495224 0.53359,0.329773 1.38579,-0.493624 1.8938,-1.829771 1.43954,-3.786302 5.65057,-4.092432 8.14311,-0.591982 1.88518,2.647484 1.91432,3.029668 0.44734,5.866485 -1.2302,2.378959 -2.23198,3.034509 -4.63714,3.034509 -2.08071,0 -3.21531,-0.56313 -3.52593,-1.749995 z m 3.64523,-3.25 c 0,-1.1 -0.45,-2 -1,-2 -0.55,0 -1,0.9 -1,2 0,1.1 0.45,2 1,2 0.55,0 1,-0.9 1,-2 z m 23.51743,3.374568 c -2.40599,-2.405984 -1.59966,-7.540297 1.41924,-9.037044 3.09176,-1.53287 5.6112,-0.275078 6.49393,3.241988 1.36672,5.445465 -4.19197,9.516263 -7.91317,5.795056 z m 3.78539,-3.860873 c 0.10845,-0.542468 -0.59032,-1.137964 -1.55282,-1.323324 -1.0946,-0.210801 -1.75,0.279671 -1.75,1.309629 0,1.739789 2.9553,1.752043 3.30282,0.0137 z m 272.44718,2.677823 c -0.9625,-0.185992 -1.75,-0.86767 -1.75,-1.514842 0,-0.893652 16.89711,-1.111179 70.25,-0.904372 38.6375,0.149767 73.6025,0.262267 77.7,0.25 5.28387,-0.01582 7.13941,0.288288 6.38178,1.045919 -0.73505,0.735049 -24.42348,1.129547 -75.95,1.264841 -41.18498,0.108141 -75.66928,0.04444 -76.63178,-0.141546 z"
     id="path3041"
     inkscape:connector-curvature="0"
     sodipodi:nodetypes="sssssssssssscssssssssscssscccssssscssscssscsssssssssssscssscccsssssssssssssssscssscsssssssssssssssssssccsssssssscsssccssssssscccscsssssssscsssscsssssssssssssssssssssssssssssssssssssscssssssssssssssssssssssssssssssssscscccssssssssssssssssssssssssssssssss" />
</svg>
